# xmcd CD database file
#
# Track frame offsets:
#	150
#	6935
#	14610
#	23262
#	29682
#	35125
#	43080
#	49460
#	61180
#	66902
#	72487
#	79880
#	88730
#	96945
#	113932
#	130700
#	151845
#	172872
#	193110
#
# Disc length: 2801 seconds
#
# Revision: 1
# Processed by: cddbd v1.5.2PL0 Copyright (c) Steve Scherf et al.
# Submitted via: CDex 1.70beta2
#
DISCID=050aef13
DTITLE=Two country group - The Country Soft Hits
DYEAR=1999
DGENRE=Soundtracks
TTITLE0=HOTEL CALIFORNIA
TTITLE1=THE SOUND OF SILENCE
TTITLE2=A HORSE WUTH NO NAME
TTITLE3=SUZIE Q
TTITLE4=WHO'LL STOP THE RAIN
TTITLE5=FATHER AND SON
TTITLE6=YOU'VE GOT A FRIEND
TTITLE7=FIRE AND RAIN
TTITLE8=LIKE A ROLLING STONE
TTITLE9=KNOCKIN' ON HEAVEN'S DOOR
TTITLE10=TEACH YOUR CHILDREN
TTITLE11=STAY
TTITLE12=EVERYBODY'S TALKIN
TTITLE13=WITHOUT YOU
TTITLE14=MANDY
TTITLE15=SAILING
TTITLE16=IT'S RAINING AGAIN
TTITLE17=ROCKET MAN
TTITLE18=THE YEAR OF THE CAT
EXTD=YEAR: 1999
EXTT0=
EXTT1=
EXTT2=
EXTT3=
EXTT4=
EXTT5=
EXTT6=
EXTT7=
EXTT8=
EXTT9=
EXTT10=
EXTT11=
EXTT12=
EXTT13=
EXTT14=
EXTT15=
EXTT16=
EXTT17=
EXTT18=
PLAYORDER=
